# Blender v2.93.6 OBJ File: ''
# www.blender.org
mtllib Seed.mtl
o seed
v -1.251664 0.519621 0.797874
v -1.332232 0.739828 0.372994
v -1.274733 0.633235 0.799452
v -0.957037 0.527033 1.209152
v -1.291713 0.554523 0.369467
v -0.998079 0.870878 -0.152301
v -1.118327 0.322737 0.875227
v -0.957888 0.659166 -0.162935
v -0.481121 0.976676 -0.579926
v -1.071119 0.228794 0.497441
v -0.680146 0.224381 1.270562
v -0.438452 0.781531 -0.583642
v 0.053583 1.060366 -0.910941
v -0.542673 0.360476 1.437539
v -0.512171 0.452658 1.488069
v -0.346184 0.066071 1.151491
v -0.118745 0.291230 1.427742
v -0.059764 0.444164 1.520860
v 0.456338 0.534372 1.159724
v 0.134374 0.075055 0.735273
v -0.703023 0.266666 -0.019293
v 0.397030 0.355032 1.059498
v -0.206119 0.430358 -0.450971
v 0.557315 0.257165 0.237338
v 0.796799 0.504258 0.530827
v 0.858909 0.665313 0.628887
v 1.160642 0.801830 0.087690
v 0.906594 0.479494 -0.236261
v 1.101960 0.672902 0.001034
v 1.324839 1.025066 -0.800389
v 1.248178 0.911754 -0.902128
v 1.249596 1.093273 -1.081580
v 0.283887 0.619271 -0.798079
v 1.034390 0.959745 -1.095010
v 0.965740 1.108568 -1.124323
v 0.094401 0.899066 -0.908006
v -0.540116 0.566269 1.492931
v -0.059764 0.444164 1.520860
v -0.512171 0.452658 1.488069
v -0.957037 0.527033 1.209152
v -0.114513 0.631698 1.519383
v 0.456338 0.534372 1.159724
v -0.664092 0.760861 1.424096
v 0.401917 0.748312 1.165354
v 0.858909 0.665313 0.628887
v -0.319683 0.953649 1.405446
v 0.801255 0.862804 0.627334
v 1.160642 0.801830 0.087690
v 0.164808 1.120232 1.033641
v 1.105595 0.965358 0.079752
v 1.324839 1.025066 -0.800389
v 0.584926 1.201916 0.507106
v 1.255819 1.173561 -0.827390
v 1.249596 1.093273 -1.081580
v 0.928980 1.242001 -0.018461
v 1.144252 1.244687 -0.916097
v 1.032983 1.223767 -1.028507
v 0.965740 1.108568 -1.124323
v 0.604106 1.425729 -0.282866
v 0.098035 1.191522 -0.829288
v 0.053583 1.060366 -0.910941
v 0.279945 1.388226 -0.604240
v 0.186609 1.435335 0.185054
v -0.433997 1.140077 -0.487135
v -0.481121 0.976676 -0.579926
v -0.998079 0.870878 -0.152301
v -0.210781 1.381185 -0.211049
v -0.953000 1.052446 -0.057079
v -1.287482 0.894990 0.461108
v -1.332232 0.739828 0.372994
v -1.274733 0.633235 0.799452
v -0.707983 1.316868 0.245913
v -1.249106 0.725414 0.853266
v -0.272119 1.383592 0.682276
v -0.697883 1.165069 1.096998
v -1.075270 1.123879 0.723501
v -0.892594 0.858332 1.229849
v -1.120800 0.863755 1.011899
vt -0.283521 0.022384
vt -0.193363 0.108972
vt -0.344668 0.039962
vt -0.522601 -0.002187
vt -0.261272 0.108972
vt -0.127608 0.300740
vt -0.415075 0.050509
vt -0.199684 0.300740
vt -0.131646 0.510769
vt -0.344402 0.108972
vt -0.626790 0.050509
vt -0.207309 0.510769
vt -0.135319 0.701820
vt -0.699191 0.039962
vt -0.761197 0.022384
vt -0.694623 0.108972
vt -0.781705 0.108972
vt -0.852893 0.108972
vt -0.926720 0.300740
vt -0.731281 0.300740
vt -0.303003 0.300740
vt -0.847984 0.300740
vt -0.314598 0.510769
vt -0.724608 0.510769
vt -0.843316 0.510769
vt -0.926720 0.510769
vt -0.926720 0.701820
vt -0.718538 0.701820
vt -0.839069 0.701820
vt -0.718643 0.942984
vt -0.615354 0.942984
vt -0.523296 1.009743
vt -0.325146 0.701820
vt -0.436589 0.942984
vt -0.336783 0.942984
vt -0.214246 0.701820
vt 0.750782 0.042249
vt 0.850621 0.122487
vt 0.691693 0.055832
vt 0.532768 0.015122
vt 0.772206 0.140664
vt 0.907308 0.307708
vt 0.634928 0.062623
vt 0.822506 0.314979
vt 0.866541 0.510569
vt 0.700334 0.158841
vt 0.787218 0.510224
vt 0.829457 0.695098
vt 0.727692 0.322250
vt 0.755119 0.687827
vt 0.716587 0.928031
vt 0.699853 0.511784
vt 0.628526 0.917124
vt 0.527563 0.994682
vt 0.674529 0.684192
vt 0.530759 0.913489
vt 0.432992 0.917124
vt 0.346897 0.928031
vt 0.527773 0.680556
vt 0.296805 0.687827
vt 0.224896 0.695098
vt 0.381183 0.684192
vt 0.529629 0.513344
vt 0.268337 0.510224
vt 0.191485 0.510569
vt 0.154756 0.307708
vt 0.359492 0.511784
vt 0.237041 0.314979
vt 0.289042 0.140664
vt 0.213211 0.122487
vt 0.313826 0.042249
vt 0.335647 0.322250
vt 0.372784 0.055832
vt 0.531669 0.329521
vt 0.532667 0.166112
vt 0.364999 0.158841
vt 0.533043 0.066259
vt 0.431157 0.062623
vn -0.9254 -0.0846 0.3693
vn -0.9790 0.0694 -0.1918
vn -0.8878 -0.3241 0.3268
vn -0.6815 -0.1637 0.7133
vn -0.8758 -0.4097 -0.2550
vn -0.7373 0.1891 -0.6486
vn -0.7065 -0.6032 0.3701
vn -0.6277 -0.3711 -0.6843
vn -0.5963 0.2149 -0.7735
vn -0.5235 -0.8432 -0.1223
vn -0.4514 -0.6648 0.5952
vn -0.4663 -0.4158 -0.7808
vn -0.4204 0.2465 -0.8732
vn -0.3329 -0.4795 0.8120
vn -0.3196 -0.2471 0.9148
vn -0.0493 -0.9528 0.2996
vn 0.1974 -0.6992 0.6871
vn 0.2637 -0.2608 0.9287
vn 0.7260 -0.1942 0.6597
vn 0.2608 -0.9652 0.0193
vn -0.2767 -0.8407 -0.4655
vn 0.5895 -0.7012 0.4010
vn -0.0720 -0.8757 -0.4775
vn 0.2534 -0.9499 -0.1831
vn 0.6627 -0.7110 0.2352
vn 0.8436 -0.1495 0.5158
vn 0.9325 -0.1134 0.3428
vn 0.4368 -0.8812 -0.1809
vn 0.7857 -0.6097 0.1047
vn 0.9995 -0.0296 0.0138
vn 0.6765 -0.6626 -0.3214
vn 0.6725 0.2664 -0.6905
vn -0.0685 -0.7599 -0.6464
vn 0.1028 -0.5116 -0.8531
vn -0.0911 0.2527 -0.9632
vn -0.3105 -0.2990 -0.9023
vn -0.3196 -0.2470 0.9148
vn -0.3319 0.0035 0.9433
vn 0.2083 0.2427 0.9475
vn 0.7260 -0.1941 0.6597
vn -0.4265 0.2284 0.8752
vn 0.6116 0.3829 0.6924
vn 0.0147 0.5997 0.8001
vn 0.6876 0.4732 0.5507
vn 0.9325 -0.1133 0.3428
vn 0.3648 0.7518 0.5492
vn 0.8122 0.4440 0.3784
vn 0.4434 0.7936 0.4165
vn 0.7657 0.6415 0.0471
vn 0.5511 0.7740 0.3116
vn 0.4014 0.8883 -0.2233
vn 0.0559 0.8063 -0.5889
vn 0.1841 0.9820 0.0415
vn -0.3078 0.7015 -0.6428
vn -0.1474 0.9359 -0.3200
vn 0.0939 0.9854 0.1420
vn -0.4630 0.7443 -0.4813
vn -0.5963 0.2148 -0.7735
vn -0.2414 0.9500 -0.1979
vn -0.6201 0.6633 -0.4189
vn -0.8698 0.4925 -0.0300
vn -0.9254 -0.0846 0.3694
vn -0.3699 0.9222 -0.1128
vn -0.8883 0.1332 0.4394
vn -0.0067 0.9684 0.2494
vn -0.2922 0.8003 0.5236
vn -0.6220 0.7515 0.2199
vn -0.5786 0.3616 0.7311
vn -0.7576 0.3109 0.5738
usemtl it04_mat_SEED
s 1
f 3/1/1 2/2/2 1/3/3
f 3/1/1 1/3/3 4/4/4
f 2/2/2 5/5/5 1/3/3
f 2/2/2 6/6/6 5/5/5
f 7/7/7 4/4/4 1/3/3
f 1/3/3 5/5/5 7/7/7
f 6/6/6 8/8/8 5/5/5
f 6/6/6 9/9/9 8/8/8
f 5/5/5 10/10/10 7/7/7
f 5/5/5 8/8/8 10/10/10
f 4/4/4 7/7/7 11/11/11
f 9/9/9 12/12/12 8/8/8
f 9/9/9 13/13/13 12/12/12
f 14/14/14 4/4/4 11/11/11
f 15/15/15 4/4/4 14/14/14
f 11/11/11 7/7/7 16/16/16
f 11/11/11 16/16/16 14/14/14
f 7/7/7 10/10/10 16/16/16
f 14/14/14 17/17/17 15/15/15
f 16/16/16 17/17/17 14/14/14
f 17/17/17 18/18/18 15/15/15
f 18/18/18 17/17/17 19/19/19
f 16/16/16 10/10/10 20/20/20
f 16/16/16 20/20/20 17/17/17
f 8/8/8 21/21/21 10/10/10
f 10/10/10 21/21/21 20/20/20
f 8/8/8 12/12/12 21/21/21
f 20/20/20 22/22/22 17/17/17
f 17/17/17 22/22/22 19/19/19
f 20/20/20 21/21/21 23/23/23
f 12/12/12 23/23/23 21/21/21
f 20/20/20 24/24/24 22/22/22
f 24/24/24 20/20/20 23/23/23
f 19/19/19 22/22/22 25/25/25
f 24/24/24 25/25/25 22/22/22
f 26/26/26 19/19/19 25/25/25
f 26/26/26 25/25/25 27/27/27
f 24/24/24 28/28/28 25/25/25
f 24/24/24 23/23/23 28/28/28
f 25/25/25 29/29/29 27/27/27
f 28/28/28 29/29/29 25/25/25
f 27/27/27 29/29/29 30/30/30
f 29/29/29 31/31/31 30/30/30
f 29/29/29 28/28/28 31/31/31
f 31/31/31 32/32/32 30/30/30
f 23/23/23 33/33/33 28/28/28
f 28/28/28 33/33/33 31/31/31
f 31/31/31 34/34/34 32/32/32
f 33/33/33 34/34/34 31/31/31
f 35/35/35 32/32/32 34/34/34
f 36/36/36 33/33/33 23/23/23
f 36/36/36 34/34/34 33/33/33
f 36/36/36 35/35/35 34/34/34
f 12/12/12 36/36/36 23/23/23
f 13/13/13 35/35/35 36/36/36
f 13/13/13 36/36/36 12/12/12
f 39/37/37 38/38/18 37/39/38
f 39/37/37 37/39/38 40/40/4
f 38/38/18 41/41/39 37/39/38
f 38/38/18 42/42/40 41/41/39
f 43/43/41 40/40/4 37/39/38
f 37/39/38 41/41/39 43/43/41
f 42/42/40 44/44/42 41/41/39
f 42/42/40 45/45/26 44/44/42
f 41/41/39 46/46/43 43/43/41
f 41/41/39 44/44/42 46/46/43
f 45/45/26 47/47/44 44/44/42
f 45/45/26 48/48/45 47/47/44
f 44/44/42 49/49/46 46/46/43
f 44/44/42 47/47/44 49/49/46
f 48/48/45 50/50/47 47/47/44
f 48/48/45 51/51/30 50/50/47
f 47/47/44 52/52/48 49/49/46
f 47/47/44 50/50/47 52/52/48
f 50/50/47 51/51/30 53/53/49
f 51/51/30 54/54/32 53/53/49
f 50/50/47 55/55/50 52/52/48
f 50/50/47 53/53/49 55/55/50
f 56/56/51 53/53/49 54/54/32
f 55/55/50 53/53/49 56/56/51
f 57/57/52 56/56/51 54/54/32
f 57/57/52 54/54/32 58/58/35
f 59/59/53 55/55/50 56/56/51
f 52/52/48 55/55/50 59/59/53
f 59/59/53 56/56/51 57/57/52
f 60/60/54 57/57/52 58/58/35
f 61/61/13 60/60/54 58/58/35
f 62/62/55 59/59/53 57/57/52
f 60/60/54 62/62/55 57/57/52
f 63/63/56 52/52/48 59/59/53
f 63/63/56 59/59/53 62/62/55
f 49/49/46 52/52/48 63/63/56
f 64/64/57 60/60/54 61/61/13
f 62/62/55 60/60/54 64/64/57
f 65/65/58 64/64/57 61/61/13
f 65/65/58 66/66/6 64/64/57
f 67/67/59 62/62/55 64/64/57
f 67/67/59 63/63/56 62/62/55
f 66/66/6 68/68/60 64/64/57
f 67/67/59 64/64/57 68/68/60
f 69/69/61 68/68/60 66/66/6
f 70/70/2 69/69/61 66/66/6
f 69/69/61 70/70/2 71/71/62
f 72/72/63 67/67/59 68/68/60
f 72/72/63 68/68/60 69/69/61
f 67/67/59 72/72/63 63/63/56
f 73/73/64 69/69/61 71/71/62
f 71/71/62 40/40/4 73/73/64
f 72/72/63 74/74/65 63/63/56
f 74/74/65 49/49/46 63/63/56
f 46/46/43 49/49/46 74/74/65
f 75/75/66 46/46/43 74/74/65
f 75/75/66 74/74/65 72/72/63
f 43/43/41 46/46/43 75/75/66
f 76/76/67 72/72/63 69/69/61
f 76/76/67 75/75/66 72/72/63
f 76/76/67 69/69/61 73/73/64
f 77/77/68 43/43/41 75/75/66
f 77/77/68 75/75/66 76/76/67
f 40/40/4 43/43/41 77/77/68
f 78/78/69 76/76/67 73/73/64
f 78/78/69 77/77/68 76/76/67
f 73/73/64 40/40/4 78/78/69
f 40/40/4 77/77/68 78/78/69
